<?xml version="1.0" encoding="UTF-8"?>
<!DOCTYPE svg PUBLIC "-//W3C//DTD SVG 1.1//EN" "http://www.w3.org/Graphics/SVG/1.1/DTD/svg11.dtd">
<!-- Creator: CorelDRAW 2021 (64-Bit) -->
<svg xmlns="http://www.w3.org/2000/svg" xml:space="preserve" width="7.5803mm" height="4.7267mm" version="1.1" style="shape-rendering:geometricPrecision; text-rendering:geometricPrecision; image-rendering:optimizeQuality; fill-rule:evenodd; clip-rule:evenodd"
viewBox="0 0 758.04 472.68"
 xmlns:xlink="http://www.w3.org/1999/xlink"
 xmlns:xodm="http://www.corel.com/coreldraw/odm/2003">
 <defs>
  <style type="text/css">
   <![CDATA[
    .fil0 {fill:#2B2A29}
   ]]>
  </style>
 </defs>
 <g id="Livello_x0020_1">
  <metadata id="CorelCorpID_0Corel-Layer"/>
  <g id="_1858540403104">
   <path class="fil0" d="M306.81 2.77c-2.45,-3.14 -6.96,-3.69 -10.1,-1.24 -45.08,35.19 -268.37,206.04 -294.88,230.33 -2.44,2.23 -2.43,6.71 0,8.95 25.04,23.07 249.79,195.14 294.88,230.33 3.14,2.45 7.65,1.9 10.1,-1.24 2.45,-3.14 1.87,-7.62 -1.24,-10.1l-280.56 -223.46 280.56 -223.47c3.12,-2.48 3.69,-6.96 1.24,-10.1z"/>
   <path class="fil0" d="M451.23 2.77c2.45,-3.14 6.96,-3.69 10.1,-1.24 45.08,35.19 268.37,206.04 294.88,230.33 2.44,2.23 2.43,6.71 0,8.95 -25.04,23.07 -249.79,195.14 -294.88,230.33 -3.14,2.45 -7.65,1.9 -10.1,-1.24 -2.45,-3.14 -1.87,-7.62 1.24,-10.1l280.56 -223.46 -280.56 -223.47c-3.12,-2.48 -3.69,-6.96 -1.24,-10.1z"/>
  </g>
 </g>
</svg>
